<svg width="84" height="81" viewBox="0 0 84 81" fill="none" xmlns="http://www.w3.org/2000/svg">
<path d="M83.0173 8.72698C81.9397 4.7019 79.1671 1.15855 74.8137 0.716077C72.8083 0.462725 70.7637 0.769602 68.8011 1.29058C64.8224 2.31826 61.3433 4.53419 58.8062 7.7671C56.2977 10.8359 54.5956 14.8074 54.8846 18.7933C55.0273 20.7344 55.9729 22.5685 56.7009 24.5383C61.1185 36.6135 60.1122 49.8948 52.7008 60.5606C50.3635 64.0112 47.5767 67.1227 44.5293 69.9168C47.384 66.9443 50.0638 63.7649 52.2155 60.2466C59.0988 49.5344 59.9195 36.7919 55.6054 24.9486C54.8882 22.986 53.8997 21.0413 53.7463 18.8896C53.5893 16.72 53.9854 14.5719 54.7561 12.5629C56.3333 8.6128 59.1773 5.18363 62.767 2.91774C64.5869 1.82226 66.5709 1.04079 68.6191 0.555502C75.7058 -1.23223 81.383 1.24419 83.0209 8.72342L83.0173 8.72698Z" fill="white"/>
<path d="M83.2386 9.59048C81.8612 4.39499 78.3571 0.591146 72.6585 1.20133C67.8305 1.75442 62.8348 4.02745 60.3941 8.4165C57.0684 14.058 58.5064 19.7567 59.4592 25.7978C59.8803 29.8051 60.4298 33.8266 60.4833 37.8731C60.5154 40.9133 60.3763 43.9607 59.9195 46.9688C59.0988 52.0073 56.5546 56.639 53.468 60.6105C50.988 63.8077 48.0548 66.5875 45.1002 69.3315C47.9085 66.459 50.7632 63.6079 53.1147 60.3465C56.0728 56.3356 58.4636 51.8074 59.1702 46.8582C59.9909 40.8848 59.6804 34.8614 58.874 28.9023C58.5314 23.8781 56.865 18.9074 57.6536 13.819C58.7312 7.04983 62.999 2.79994 69.5933 1.20133C76.6764 -0.689886 81.6435 2.48593 83.235 9.59405L83.2386 9.59048Z" fill="white"/>
<path d="M70.0607 2.06128C65.297 3.84901 62.6207 8.77331 61.5466 13.4942C61.3611 14.6111 61.3326 15.7672 61.2755 16.9091C61.1541 19.2214 60.9721 23.8781 60.9079 26.1939C60.8294 28.5098 60.7509 30.8649 60.5796 33.1771C60.5118 33.9515 60.4191 34.7222 60.362 35.4966C60.5368 32.3921 60.2585 29.2948 60.2014 26.1903C60.1086 23.0859 60.1693 19.9636 60.3191 16.8627C60.4191 15.2998 60.4405 13.6548 60.9543 12.1561C62.3281 7.74563 65.3255 3.18887 70.0607 2.06128Z" fill="white"/>
<path d="M75.7379 1.90071C69.9608 1.58669 66.3175 8.02397 65.0115 12.8876C64.5833 14.8395 64.2407 17.2481 63.9445 19.2464C63.0168 25.2483 61.6751 31.1717 60.3619 37.0987C60.9115 32.1245 61.8642 26.6435 62.6421 21.6764C63.0596 19.1072 63.3058 16.5166 63.8518 13.9652C64.8438 8.60204 69.4184 0.90871 75.7415 1.90428L75.7379 1.90071Z" fill="white"/>
<path d="M71.8056 4.83392C70.4496 5.62966 69.7645 7.19972 69.1508 8.58424C68.5299 10.0258 68.1873 11.5245 68.016 13.0875C67.3809 17.3481 67.0597 21.7514 65.6788 25.8764C64.3728 29.4947 61.6537 36.535 60.2656 40.2139C60.6938 38.701 61.1827 37.2058 61.6608 35.7071C62.5529 33.0452 63.7876 29.3841 64.7118 26.7827C65.2506 25.3376 65.6859 23.8032 65.9857 22.2938C66.6066 19.2286 66.9777 16.0956 67.5308 13.009C67.8662 10.6681 68.6762 8.33445 70.0678 6.40042C70.5353 5.77596 71.0705 5.12652 71.8092 4.82678L71.8056 4.83392Z" fill="white"/>
<path d="M77.6933 2.63583C73.3935 2.67508 70.4532 5.27996 69.793 9.50844C69.5897 11.1499 69.4362 13.6227 69.2935 15.307C68.9723 18.7397 68.7368 23.6034 68.223 26.9683C67.7841 28.9023 67.024 30.715 66.1926 32.4992C64.5048 36.0212 62.5672 39.436 60.1764 42.5155C62.3388 39.2897 64.1587 35.832 65.7323 32.2887C66.4923 30.5116 67.231 28.7061 67.6235 26.8434C67.9054 25.2448 68.0267 22.7148 68.198 21.0734C68.5548 17.1804 68.8296 13.3194 69.3827 9.43707C70.1463 5.12652 73.2829 2.44314 77.6969 2.63583H77.6933Z" fill="white"/>
<path d="M60.1729 43.4041C65.6039 37.7661 69.108 30.7936 70.0643 23.0004C70.0072 23.9638 69.8894 24.9237 69.736 25.88C68.6548 32.5956 65.1507 38.8045 60.1729 43.4041Z" fill="white"/>
<path d="M48.5401 25.1485C48.408 19.5034 49.8604 12.6665 53.4323 8.17395C55.4091 5.89021 58.0104 4.25592 60.6831 2.91066C62.0284 2.25051 63.4093 1.66531 64.8331 1.20142C66.2461 0.798202 67.752 0.273657 69.2328 0.541282C67.7484 0.327182 66.2747 0.898115 64.883 1.34773C60.7723 2.89281 56.6116 5.04809 53.6785 8.37734C50.1851 12.7022 48.6186 19.6533 48.5401 25.1485Z" fill="white"/>
<path d="M49.3715 29.1271C49.7997 23.3679 50.1137 17.1518 52.8613 11.9528C53.5536 10.6432 54.4706 9.4799 55.3699 8.30949C57.1505 5.95796 59.4913 3.97397 62.2746 2.93201C63.6484 2.39676 65.065 1.99711 66.4923 1.66882C65.0829 2.07918 63.6841 2.51809 62.3424 3.09972C58.2281 4.76257 55.377 8.40584 53.1611 12.1133C50.3992 17.3231 50.0637 23.3679 49.3679 29.1236L49.3715 29.1271Z" fill="white"/>
<path d="M55.9051 7.89917C54.0924 10.8395 53.4537 14.3686 53.1075 17.7585C52.9363 20.2492 52.6686 23.0289 52.4795 25.5339C51.9478 32.5135 49.5606 39.2898 45.9102 45.2418C45.4642 45.9876 45.0039 46.7226 44.5328 47.4541C48.1404 40.5744 50.9987 33.245 51.6731 25.4661C51.8265 23.8068 52.3011 19.4035 52.4902 17.6978C52.9612 14.2722 53.8176 10.7146 55.9087 7.90274L55.9051 7.89917Z" fill="white"/>
<path d="M53.8676 19.1858C54.3493 22.5472 54.3386 25.9692 54.0281 29.3484C53.5928 34.469 51.6837 39.3683 49.1467 43.8073C47.4767 46.7547 45.5105 49.4952 44.0011 52.5212C43.2375 54.0163 42.5916 55.5757 41.9957 57.16C42.5488 54.6871 43.4802 52.2607 44.6184 49.9948C46.5775 46.2552 48.9005 42.7332 50.5669 38.8544C53.3823 32.724 54.0496 25.8657 53.864 19.1858H53.8676Z" fill="white"/>
<path d="M55.2771 23.7283C57.6286 34.4333 53.0933 42.5191 46.9843 50.8761C45.1252 53.5167 43.5373 56.3072 42.3169 59.3081C43.134 56.1609 44.5756 53.1777 46.3206 50.4408C52.1976 41.5628 56.2762 34.8044 55.2771 23.7283Z" fill="white"/>
<path d="M56.8221 27.9388C59.1915 38.1478 54.1851 45.5914 48.0262 53.1491C46.1457 55.5435 44.49 58.1055 43.2589 60.9245C44.176 57.9878 45.6961 55.2437 47.4945 52.7566C53.4358 44.8278 58.0532 38.3619 56.8186 27.9388H56.8221Z" fill="white"/>
<path d="M57.5501 32.2529C59.5376 40.3102 56.3654 46.8046 51.359 52.9493C48.5151 56.3606 45.5105 59.6327 43.6586 63.7328C44.6149 60.9102 46.1707 58.3018 47.9941 55.9538C53.9247 48.5602 58.8668 42.3049 57.5537 32.2565L57.5501 32.2529Z" fill="white"/>
<path d="M44.6114 66.1093C45.4249 65.203 45.9459 64.1075 46.5133 63.0441C47.0842 61.9772 47.6908 60.921 48.3545 59.904C49.3608 58.3839 50.4848 56.9423 51.6802 55.5685C53.7534 53.3704 55.0416 50.6406 56.1763 47.8466C57.0399 45.5986 57.8499 43.3077 58.2638 40.9276C57.857 44.5423 56.6366 48.05 55.1058 51.34C54.5706 52.4355 53.9675 53.5024 53.2324 54.4908C52.4831 55.4686 51.6481 56.3143 50.8845 57.2706C49.3537 59.1332 47.9549 61.0887 46.7381 63.1762C46.1065 64.2003 45.5034 65.2922 44.6078 66.1129L44.6114 66.1093Z" fill="white"/>
<path d="M0.224854 8.95176C1.43809 3.16392 5.60233 -0.329475 11.615 0.294983C14.7908 0.591154 17.8845 1.56531 20.6214 3.23529C24.2076 5.55827 27.048 9.02669 28.5788 13.0304C29.3175 15.0679 29.6921 17.241 29.4709 19.4212C29.2247 21.5765 28.2291 23.4963 27.5262 25.4803C24.7964 33.1772 24.1006 41.7983 26.2451 49.7271C27.8901 55.7041 31.1088 61.1743 34.8056 66.1343L36.6825 68.6321C37.3534 69.4386 37.778 70.4127 38.3668 71.2656C37.2998 69.4707 35.8654 67.9541 34.5701 66.3198C33.2569 64.6998 31.9937 63.0334 30.8269 61.2956C23.2727 50.3444 22.0452 37.5519 26.4271 25.0806C27.1408 23.0895 28.1149 21.234 28.3362 19.2928C28.5503 17.3302 28.1934 15.282 27.5404 13.4086C26.1631 9.62974 23.4583 6.27194 20.1397 4.00248C16.7284 1.88289 12.5356 0.555471 8.50696 0.930146C4.10363 1.35835 1.31676 4.87672 0.224854 8.95176Z" fill="white"/>
<path d="M0.00356841 9.81533C1.34526 3.6778 5.57017 -0.0832255 12.036 1.09789C17.8631 2.07562 22.7196 5.06945 24.7607 10.8216C26.841 16.1848 25.221 21.862 24.5501 27.2966C24.4217 28.3849 24.3467 29.5054 24.179 30.583C23.3476 35.9855 23.2049 41.4807 24.0506 46.876C25.6242 54.4266 31.1623 60.3643 35.4193 66.5768C36.6896 68.3752 37.9314 70.2022 38.984 72.1398C40.0153 74.0667 40.9359 76.172 40.9181 78.3951C40.8574 76.1827 39.8726 74.1345 38.8056 72.2397C37.7101 70.3414 36.4291 68.5537 35.1195 66.7945C30.6912 60.6926 24.9712 54.5836 23.2976 47.0116C22.3627 41.5414 22.4948 35.9248 23.2869 30.4617C23.4511 29.3627 23.5082 28.2886 23.6331 27.1931C24.2789 21.8406 25.9846 16.3454 23.9899 11.0999C22.9016 8.07398 20.8533 5.3906 18.0094 3.83124C15.2082 2.26117 11.9503 1.25133 8.72101 1.40477C3.98226 1.62244 1.12046 5.53333 0 9.81533H0.00356841Z" fill="white"/>
<path d="M13.1814 2.28613C17.9166 3.41373 20.9175 7.97049 22.2878 12.3809C22.8052 13.8796 22.823 15.5246 22.9229 17.0876C23.0728 20.1885 23.1335 23.3108 23.0407 26.4152C22.9836 29.5197 22.7053 32.617 22.8801 35.7214C22.823 34.9471 22.7303 34.1763 22.6625 33.402C22.4912 31.0897 22.4162 28.7346 22.3342 26.4188C22.2699 24.1029 22.088 19.4462 21.9666 17.134C21.9095 15.9921 21.881 14.836 21.6954 13.7191C20.6214 8.99817 17.9451 4.07387 13.1814 2.28613Z" fill="white"/>
<path d="M7.50427 2.12554C13.8238 1.12641 18.402 8.82331 19.394 14.1865C19.9363 16.7379 20.1861 19.3285 20.6036 21.8977C21.3815 26.8684 22.3307 32.3386 22.8838 37.32C21.5671 31.393 20.2289 25.4696 19.3012 19.4676C19.0014 17.4658 18.6624 15.0679 18.2343 13.1089C16.9282 8.24523 13.285 1.81153 7.50784 2.12197L7.50427 2.12554Z" fill="white"/>
<path d="M11.4365 5.05872C12.1752 5.35846 12.7104 6.00789 13.1779 6.63235C14.5695 8.56639 15.3795 10.9001 15.715 13.2409C16.2645 16.3275 16.6392 19.4605 17.26 22.5257C17.5562 24.0315 17.9951 25.5731 18.5339 27.0147C19.4546 29.6017 20.7035 33.2985 21.5849 35.9391C22.0595 37.4378 22.5519 38.9329 22.9801 40.4459C21.5742 36.717 18.8836 29.7551 17.5669 26.1083C16.186 21.9798 15.8648 17.58 15.2297 13.3194C15.0584 11.7529 14.7158 10.2578 14.0949 8.81617C13.4812 7.43166 12.7961 5.86159 11.4401 5.06585L11.4365 5.05872Z" fill="white"/>
<path d="M5.54883 2.86061C8.49984 2.6929 11.59 4.09882 12.9067 6.84287C14.2698 9.49414 14.1164 12.5986 14.4625 15.4711L14.955 21.2803C15.1405 22.9396 15.2369 25.4267 15.6722 27.004C16.1896 28.8452 16.9318 30.6436 17.6954 32.4242C19.2584 35.9712 20.9355 39.4931 23.0729 42.7367C20.7035 39.6394 18.9051 36.146 17.2316 32.6312C16.3216 30.6401 15.4153 28.5954 14.9014 26.4366C14.3305 22.8219 14.1735 19.1536 13.888 15.5104C13.7596 13.8261 13.6382 11.3639 13.4491 9.71538C12.7961 5.50117 9.83796 2.88916 5.5524 2.85347L5.54883 2.86061Z" fill="white"/>
<path d="M23.0693 43.6288C18.0915 39.0257 14.5873 32.8168 13.5061 26.1047C13.3527 25.1484 13.2385 24.1885 13.1779 23.2251C14.1306 31.0183 17.6383 37.9909 23.0693 43.6288Z" fill="white"/>
<path d="M34.702 25.3732C34.6271 19.8887 33.0535 12.9198 29.5636 8.60207C26.6305 5.27282 22.4698 3.11754 18.3591 1.57246C16.9674 1.12285 15.4937 0.551913 14.0093 0.766013C15.4901 0.498388 16.996 1.02293 18.409 1.42615C19.8328 1.89004 21.2173 2.47524 22.559 3.13539C25.2317 4.47708 27.8294 6.11494 29.8099 8.39868C33.3782 12.8876 34.8341 19.7317 34.702 25.3732Z" fill="white"/>
<path d="M33.8706 29.352C33.1784 23.5962 32.8394 17.5515 30.0775 12.3417C27.8616 8.63423 25.0105 4.98739 20.8962 3.32812C19.5545 2.74648 18.1557 2.30401 16.7462 1.89722C18.1771 2.2255 19.5937 2.62516 20.964 3.16041C23.7473 4.20236 26.0881 6.18635 27.8687 8.53788C28.7679 9.7083 29.685 10.8716 30.3772 12.1812C33.1249 17.3766 33.4389 23.6034 33.8671 29.3555L33.8706 29.352Z" fill="white"/>
<path d="M27.337 8.12393C29.4245 10.9358 30.2845 14.497 30.7555 17.919C30.9446 19.6532 31.4156 24.0137 31.5726 25.6873C32.2506 33.4698 35.1053 40.7956 38.7129 47.6753C38.2383 46.9474 37.7815 46.2087 37.3355 45.463C33.6815 39.511 31.2979 32.7383 30.7662 25.7551C30.5771 23.2465 30.3095 20.4739 30.1382 17.9797C29.792 14.5897 29.1533 11.0642 27.3406 8.12036L27.337 8.12393Z" fill="white"/>
<path d="M29.3745 19.4105C29.1639 24.6952 29.5279 30.1048 31.1051 35.1611C31.9044 37.6875 33.0463 40.0819 34.231 42.4477C36.5932 47.2328 39.5692 51.7039 41.6995 56.6247C42.8021 59.0761 43.5943 61.6703 44.2366 64.2716C45.8102 69.7204 45.878 74.8588 43.1197 79.9473C45.4748 74.7518 45.2107 69.799 43.5122 64.4714C42.4952 60.6141 41.0001 56.9387 39.1267 53.4239C37.2462 49.8912 35.1623 46.4728 33.4174 42.8509C32.2577 40.428 31.1194 37.973 30.3879 35.3788C28.9213 30.1976 28.775 24.7238 29.3709 19.4105H29.3745Z" fill="white"/>
<path d="M27.965 23.953C27.3405 31.3323 28.7785 37.0238 32.3897 43.4432C35.6012 49.4666 39.5799 55.1295 42.3204 61.4134C38.8805 55.4649 34.784 49.9769 31.5012 43.925C27.8829 37.5805 26.3913 31.1789 27.965 23.953Z" fill="white"/>
<path d="M26.42 28.1637C25.5564 35.518 27.6261 41.6805 31.9402 47.6111C35.009 51.8146 38.7379 55.6292 41.5212 60.0789C42.4382 61.5776 43.2732 63.1369 43.8156 64.8069C42.4132 61.5918 40.2187 58.8514 37.9849 56.1822C35.1695 52.8316 32.115 49.6415 29.7635 45.9162C26.3022 40.3817 24.9463 34.5903 26.4164 28.1673L26.42 28.1637Z" fill="white"/>
<path d="M25.692 32.4778C24.4395 41.0882 28.0578 47.6539 33.7136 53.8414C39.6763 60.2109 44.8575 65.0567 44.2223 74.5663C44.1759 70.5983 43.1055 66.6624 40.8967 63.3617C38.7128 60.0432 35.7618 57.3455 33.0891 54.4052C27.4405 48.257 23.683 40.9919 25.692 32.4742V32.4778Z" fill="white"/>
<path d="M42.8058 78.1311C43.7585 72.9748 42.1349 67.5688 38.7236 63.6543C35.1874 59.8184 31.3978 56.1287 28.693 51.6148C26.8875 48.6459 25.5636 45.231 25.7063 41.7126C25.7099 45.2203 27.0944 48.5424 28.9357 51.4649C31.719 55.9003 35.505 59.5579 39.0412 63.3831C42.4775 67.3583 44.094 73.0105 42.8058 78.1346V78.1311Z" fill="white"/>
<path d="M27.2443 54.3838C29.8848 57.3776 32.7074 60.1823 35.4621 63.0727C39.1768 66.8052 42.7594 71.5403 42.5381 77.0713C42.481 78.4165 42.242 79.7475 41.7924 81C43.5694 73.9383 39.6977 68.3181 35.0375 63.4652C32.3541 60.5213 29.6208 57.5917 27.2478 54.3838H27.2443Z" fill="white"/>
<path d="M41.928 42.8331L41.5568 41.8554C41.3749 41.47 41.1144 41.1274 40.7861 40.8491L40.1295 40.3995L40.6362 40.0998C41.0501 39.8107 41.3784 39.4146 41.5854 38.9508L41.9208 38.048L42.2313 38.9222C42.4525 39.3897 42.7844 39.7965 43.2018 40.1033L43.8227 40.4138L42.9877 40.8848C42.6702 41.1738 42.4846 41.4593 42.3026 41.8411L41.9315 42.8295L41.928 42.8331Z" fill="white"/>
<path d="M41.9136 44.4639L41.2892 42.8225C40.9859 42.173 40.5434 41.595 39.9939 41.1346L38.8877 40.3817L39.7405 39.875C40.4399 39.3897 40.9894 38.7224 41.3356 37.9445L41.8994 36.4244L42.4239 37.8946C42.795 38.6832 43.3553 39.3647 44.0546 39.8822L45.0966 40.4031L43.6907 41.1989C43.159 41.6842 42.845 42.1659 42.5381 42.8046L41.9136 44.4675V44.4639Z" fill="white" stroke="black" stroke-miterlimit="10"/>
</svg>
